<svg preserveAspectRatio="none" width="100%" height="100%" overflow="visible" style="display: block;" viewBox="0 0 29.341 34.1163" fill="none" xmlns="http://www.w3.org/2000/svg">
<path id="Vector" d="M28.9999 16.7171C21.2741 16.7171 15.0116 10.4546 15.0116 2.72876V0.341095C15.0116 0.153493 14.8581 0 14.6705 0C14.4829 0 14.3294 0.153493 14.3294 0.341095V2.72876C14.3294 10.4546 8.0669 16.7171 0.341095 16.7171C0.153493 16.7171 0 16.8706 0 17.0582C0 17.2458 0.153493 17.3993 0.341095 17.3993C8.0669 17.3993 14.3294 23.6618 14.3294 31.3876V33.7752C14.3294 33.9628 14.4829 34.1163 14.6705 34.1163C14.8581 34.1163 15.0116 33.9628 15.0116 33.7752V31.3876C15.0116 23.6618 21.2741 17.3993 28.9999 17.3993C29.1875 17.3993 29.341 17.2458 29.341 17.0582C29.341 16.8706 29.1875 16.7171 28.9999 16.7171Z" fill="var(--fill-0, black)"/>
</svg>
