<svg preserveAspectRatio="none" width="100%" height="100%" overflow="visible" style="display: block;" viewBox="0 0 85.2549 41.1047" fill="none" xmlns="http://www.w3.org/2000/svg">
<g id="Group">
<path id="Vector" d="M84.0576 4.55974C83.0548 3.34544 81.3561 3.13738 80.1043 4.08221C79.9576 4.19136 79.8178 4.31756 79.6779 4.45059C79.5586 3.78546 79.388 3.15443 79.1322 2.59503C78.757 1.76617 78.3306 1.17608 77.7917 0.736068C77.0242 0.108453 76.0487 -0.137136 75.1823 0.0743428C74.582 0.221014 74.026 0.579163 73.4871 1.16926C73.03 1.66726 72.6787 2.2096 72.4024 2.76217C71.9112 1.86509 71.3075 1.16244 70.598 0.667847C69.6361 -0.000698766 68.5821 -0.120081 67.6339 0.333576C66.5492 0.848629 65.7817 2.06975 65.6794 3.44095C65.5225 5.53186 65.7647 7.85131 66.3207 9.9354C63.8068 8.97692 61.1701 9.00421 58.8166 10.0684C57.0599 10.8598 55.6751 12.231 54.9213 13.933C54.1674 15.6351 53.7138 18.3025 54.9963 20.0625C55.409 20.6287 56.0162 21.096 56.6984 21.386C56.3402 21.5701 56.0162 21.8294 55.7331 22.1671C54.4335 23.7156 54.3107 26.7173 55.4772 28.4637C57.0872 30.8786 59.0315 31.8132 60.5903 32.5636C61.6101 33.0548 62.4185 33.4437 62.7767 34.0986C63.2372 34.9411 63.1962 35.9575 63.1382 37.3594C63.1178 37.8336 63.0973 38.3213 63.0939 38.8637C63.0905 39.4299 63.5441 39.8904 64.1104 39.8938H64.1172C64.68 39.8938 65.1371 39.4401 65.1405 38.8773C65.1405 38.3725 65.1643 37.8984 65.1814 37.4447C65.2462 35.8416 65.3042 34.4567 64.5708 33.1162C63.8989 31.8849 62.7221 31.3186 61.4771 30.7217C60.0718 30.0464 58.4789 29.2789 57.1793 27.3278C56.5244 26.3455 56.5892 24.333 57.3021 23.4803C57.5409 23.1938 57.9331 22.9141 58.8336 23.3097C59.3384 23.5314 59.7989 23.8521 60.2901 24.1898C61.3611 24.9333 62.5754 25.7758 64.3798 25.561C66.5355 25.3017 68.5003 23.2245 68.7629 20.9255C68.988 18.9437 68.0568 17.2246 66.3377 16.4401C64.4446 15.5771 62.115 16.0717 60.6721 17.6441C60.5357 17.7908 60.3958 17.9511 60.2492 18.1183C59.8194 18.6026 59.335 19.1518 58.9018 19.469C58.2503 19.9431 57.1384 19.5202 56.654 18.8584C55.9684 17.9204 56.2072 16.0922 56.7973 14.7687C57.3499 13.5305 58.3663 12.5243 59.6625 11.941C62.1218 10.8325 65.004 11.1736 67.5725 12.8756C67.5725 12.8756 67.5759 12.8756 67.5793 12.8756C67.6305 12.9097 67.685 12.937 67.7396 12.9609C67.7567 12.9677 67.7703 12.9711 67.7874 12.978C67.8283 12.9916 67.8726 13.0053 67.9136 13.0155C67.9306 13.0189 67.9477 13.0223 67.9647 13.0257C68.0193 13.036 68.0773 13.0428 68.1353 13.0428C68.1353 13.0428 68.1353 13.0428 68.1387 13.0428C68.2069 13.0428 68.2751 13.0359 68.3433 13.0223C68.3604 13.0223 68.374 13.0121 68.3877 13.0087C68.4389 12.995 68.49 12.978 68.5412 12.9575C68.5446 12.9575 68.5514 12.9575 68.5548 12.9541C68.5753 12.9439 68.5958 12.9302 68.6162 12.92C68.6503 12.9029 68.6844 12.8825 68.7151 12.862C68.7424 12.8415 68.7697 12.8177 68.7936 12.7972C68.8175 12.7767 68.8413 12.7563 68.8652 12.7324C68.8925 12.7051 68.9164 12.671 68.9403 12.6403C68.9539 12.6232 68.971 12.6062 68.9846 12.5891C68.9846 12.5857 68.988 12.5789 68.9914 12.5755C69.0119 12.5414 69.0289 12.5073 69.046 12.4731C69.0596 12.4459 69.0733 12.422 69.0835 12.3947C69.0972 12.364 69.104 12.3299 69.1108 12.2992C69.121 12.2685 69.1313 12.2344 69.1381 12.2037C69.1449 12.173 69.1449 12.1389 69.1483 12.1048C69.1483 12.0741 69.1552 12.04 69.1552 12.0093C69.1552 11.9751 69.1483 11.941 69.1449 11.9069C69.1415 11.8762 69.1381 11.8421 69.1313 11.8114C69.1245 11.7807 69.1142 11.7534 69.104 11.7261C69.0938 11.6886 69.0835 11.6545 69.0665 11.6204C69.0665 11.6136 69.0665 11.6102 69.0596 11.6034C68.0466 9.36577 67.5179 6.22428 67.7157 3.60468C67.7635 2.97365 68.0909 2.39038 68.5105 2.18913C68.6094 2.14138 68.913 1.99812 69.428 2.35627C70.6014 3.16807 71.1983 4.92471 71.4951 6.25157C71.3552 7.88883 71.3279 9.67958 71.4166 11.5761C71.4439 12.1252 71.8942 12.5516 72.4399 12.5516C72.457 12.5516 72.474 12.5516 72.4877 12.5516C73.0539 12.5243 73.4871 12.0468 73.4632 11.4806C73.3745 9.60454 73.4018 7.84449 73.5485 6.25157C73.6474 5.18053 73.9748 3.67289 74.9981 2.55751C75.2505 2.28123 75.4791 2.1175 75.6735 2.06975C75.9122 2.01176 76.2363 2.11409 76.4989 2.32898C76.7855 2.56434 77.031 2.91908 77.2732 3.45118C77.7371 4.47106 77.8497 5.94458 77.8872 7.42153C77.3551 8.8473 76.956 10.6415 76.6899 12.8381C76.6217 13.4009 77.0208 13.9092 77.5836 13.9774C78.1396 14.0456 78.6546 13.6465 78.7229 13.0837C78.9821 10.9382 79.3505 9.38965 79.7564 8.26744C79.8485 8.13442 79.9099 7.98092 79.9303 7.8172C80.4011 6.67112 80.9093 6.05715 81.3425 5.7297C81.7143 5.45 82.185 5.50798 82.4851 5.87296C83.7949 7.46587 83.0275 10.6108 82.4681 12.9063C82.376 13.2884 82.2873 13.6465 82.2123 13.9774C81.7893 15.8773 81.2572 17.7976 80.7422 19.6566C80.5648 20.2979 80.3874 20.9425 80.2135 21.5838C78.9309 26.3148 76.9253 33.986 75.4449 39.829C75.3051 40.3781 75.636 40.9341 76.1851 41.074C76.2704 41.0944 76.3557 41.1047 76.4375 41.1047C76.8946 41.1047 77.3107 40.7977 77.4301 40.3338C78.9105 34.5045 80.9127 26.8435 82.1884 22.1227C82.3624 21.4849 82.5397 20.8436 82.7171 20.2058C83.239 18.3229 83.7779 16.3787 84.2111 14.4276C84.2827 14.107 84.368 13.7625 84.4567 13.3941C85.1184 10.6756 86.0291 6.95764 84.0644 4.57339L84.0576 4.55974ZM60.0888 21.1165C60.7062 20.6697 61.269 20.0284 61.7705 19.4656C61.9069 19.3121 62.0399 19.162 62.1661 19.0222C63.1621 17.9409 64.5811 17.8863 65.4747 18.2956C66.0137 18.5412 66.8869 19.1791 66.7163 20.6901C66.5662 22.0306 65.3281 23.3814 64.124 23.5246C63.0939 23.6474 62.3674 23.1426 61.4464 22.5047C60.8972 22.1227 60.331 21.7305 59.6454 21.4303C59.6284 21.4235 59.6113 21.4167 59.5977 21.4098C59.7682 21.3314 59.9319 21.2325 60.0888 21.1199V21.1165Z" fill="var(--fill-0, black)"/>
<path id="Vector_2" d="M30.2502 20.0557C31.5361 18.2956 31.0927 15.6556 30.3252 13.9262C29.5714 12.2276 28.1866 10.8529 26.4299 10.0616C24.073 9.0008 21.4397 8.97351 18.9258 9.93198C19.4852 7.84789 19.724 5.52845 19.5671 3.43754C19.4648 2.06634 18.6973 0.845217 17.6126 0.330164C16.6644 -0.123492 15.6104 -0.00411044 14.6485 0.664436C13.939 1.15902 13.3353 1.86168 12.8441 2.75876C12.5678 2.20618 12.2131 1.66043 11.7594 1.16585C11.2205 0.579162 10.6645 0.221014 10.0642 0.0743428C9.19781 -0.137136 8.22228 0.108453 7.45482 0.736068C6.91589 1.17608 6.48952 1.76617 6.11432 2.59503C5.85849 3.15784 5.68795 3.78546 5.56857 4.45059C5.42872 4.31756 5.28887 4.19136 5.1422 4.08221C3.89038 3.13738 2.19172 3.34544 1.1889 4.55974C-0.772393 6.94399 0.134922 10.6619 0.796646 13.3805C0.885331 13.7454 0.970605 14.0933 1.04223 14.4106C1.47543 16.3616 2.01777 18.3093 2.53623 20.1921C2.7136 20.83 2.89097 21.4678 3.06493 22.1091C3.59703 24.0704 4.14279 25.9293 4.66808 27.7303C5.45942 30.4318 6.20982 32.9866 6.90907 35.8381C7.02504 36.3054 7.44118 36.6193 7.90165 36.6193C7.98352 36.6193 8.06538 36.609 8.14724 36.5886C8.69641 36.4521 9.03068 35.8995 8.89765 35.3504C8.18817 32.4545 7.43094 29.8792 6.63278 27.1539C6.10749 25.3631 5.56515 23.5144 5.03987 21.5736C4.86591 20.9289 4.68854 20.2876 4.51117 19.6464C3.99612 17.7908 3.46401 15.8704 3.04105 13.9671C2.96601 13.6363 2.88074 13.2747 2.78523 12.8961C2.22583 10.6005 1.45837 7.45223 2.76817 5.86272C3.06834 5.49775 3.53905 5.43635 3.91084 5.71605C4.34404 6.0435 4.84886 6.65748 5.32298 7.80355C5.34344 7.97069 5.40484 8.12418 5.49693 8.2538C5.90284 9.376 6.26781 10.928 6.53045 13.0701C6.59867 13.6295 7.11031 14.0319 7.66971 13.9637C8.23251 13.8955 8.6316 13.3873 8.56338 12.8245C8.29733 10.6312 7.89824 8.83366 7.36613 7.40788C7.40365 5.93435 7.51622 4.46082 7.9801 3.43754C8.22228 2.90543 8.46787 2.55069 8.75439 2.31534C9.01704 2.10045 9.34107 1.99812 9.57984 2.0561C9.77427 2.10386 9.99939 2.26758 10.2552 2.54387C11.2751 3.65925 11.6059 5.16689 11.7049 6.23792C11.8481 7.83084 11.8788 9.59089 11.7901 11.4669C11.7628 12.0331 12.1994 12.5107 12.7657 12.5379C12.7827 12.5379 12.7998 12.5379 12.8134 12.5379C13.3558 12.5379 13.8094 12.1116 13.8367 11.5624C13.9254 9.66252 13.8981 7.87518 13.7583 6.23792C14.055 4.90765 14.6519 3.15443 15.8253 2.34262C16.3438 1.98447 16.6439 2.12773 16.7428 2.17549C17.1624 2.37673 17.4898 2.95659 17.5376 3.59103C17.7354 6.21064 17.2067 9.34871 16.1937 11.5897C16.1937 11.5965 16.1937 11.5999 16.1868 11.6068C16.1732 11.6409 16.163 11.6784 16.1493 11.7125C16.1391 11.7398 16.1289 11.7705 16.122 11.7978C16.1152 11.8285 16.1152 11.8626 16.1084 11.8933C16.105 11.9274 16.0982 11.9615 16.0982 11.9956C16.0982 12.0263 16.1016 12.0604 16.105 12.0911C16.105 12.1252 16.105 12.1559 16.1152 12.19C16.122 12.2207 16.1323 12.2548 16.1425 12.2855C16.1527 12.3162 16.1596 12.3503 16.1698 12.381C16.18 12.4083 16.1937 12.4322 16.2073 12.4595C16.2244 12.4936 16.2414 12.5311 16.2619 12.5618C16.2619 12.5652 16.2653 12.5721 16.2687 12.5755C16.2824 12.5959 16.2994 12.6096 16.3131 12.63C16.3369 12.6607 16.3608 12.6914 16.3881 12.7221C16.412 12.746 16.4358 12.7665 16.4597 12.787C16.487 12.8074 16.5109 12.8313 16.5382 12.8518C16.5689 12.8756 16.603 12.8927 16.6371 12.9097C16.6576 12.92 16.6746 12.9336 16.6985 12.9439C16.7019 12.9439 16.7087 12.9439 16.7121 12.9473C16.7599 12.9677 16.8076 12.9814 16.8588 12.995C16.8759 12.9984 16.8963 13.0087 16.9134 13.0121C16.9782 13.0257 17.0464 13.0325 17.1146 13.0325C17.1146 13.0325 17.1146 13.0325 17.118 13.0325C17.176 13.0325 17.234 13.0257 17.2886 13.0155C17.3056 13.0155 17.3227 13.0087 17.3398 13.0053C17.3841 12.995 17.4284 12.9814 17.4694 12.9677C17.4864 12.9609 17.5001 12.9575 17.5171 12.9507C17.5751 12.9268 17.6263 12.8995 17.6774 12.8654C17.6774 12.8654 17.6808 12.8654 17.6843 12.8654C20.2527 11.1633 23.1384 10.8222 25.5942 11.9308C26.8904 12.5141 27.9103 13.5203 28.4594 14.7585C29.0461 16.0819 29.2849 17.9136 28.6027 18.8482C28.1184 19.5099 27.0064 19.9295 26.3549 19.4588C25.9217 19.145 25.4339 18.5924 25.0042 18.108C24.8575 17.9443 24.7176 17.784 24.5812 17.6373C23.1384 16.0649 20.8053 15.5703 18.9156 16.4333C17.1931 17.2178 16.2653 18.9369 16.4904 20.9187C16.7497 23.2176 18.7178 25.2983 20.8735 25.5541C22.6779 25.7724 23.8922 24.9265 24.9632 24.1829C25.451 23.8418 25.9149 23.5246 26.4197 23.3029C27.3202 22.9107 27.7124 23.1869 27.9512 23.4735C28.6641 24.3262 28.7289 26.3387 28.074 27.321C26.7744 29.2721 25.1815 30.0361 23.7762 30.7149C22.5312 31.3152 21.3579 31.8814 20.6825 33.1094C19.9491 34.4499 20.0037 35.8347 20.0719 37.4379C20.089 37.8949 20.1094 38.3657 20.1129 38.8739C20.1163 39.4367 20.5733 39.8904 21.1361 39.8904H21.143C21.7092 39.8869 22.1628 39.4265 22.1594 38.8602C22.156 38.3179 22.1355 37.8301 22.1151 37.356C22.0571 35.9507 22.0162 34.9377 22.4766 34.0952C22.8348 33.4402 23.6398 33.0514 24.6631 32.5602C26.2253 31.8098 28.1661 30.8752 29.7761 28.4603C30.9392 26.7139 30.8164 23.7122 29.5202 22.1636C29.2371 21.826 28.9131 21.5633 28.555 21.3825C29.2371 21.0926 29.8409 20.6253 30.257 20.0591L30.2502 20.0557ZM25.5908 21.4303C24.9018 21.7305 24.3356 22.1227 23.7864 22.5047C22.8655 23.1426 22.139 23.6474 21.1089 23.5246C19.9048 23.3814 18.67 22.0306 18.5165 20.6901C18.346 19.1791 19.2226 18.5412 19.7581 18.2956C20.0822 18.149 20.4778 18.0603 20.894 18.0603C21.6273 18.0603 22.4357 18.3332 23.0701 19.0222C23.1964 19.1586 23.3294 19.3087 23.4658 19.4622C23.9638 20.0284 24.53 20.6697 25.1474 21.1165C25.3043 21.2325 25.4715 21.328 25.6386 21.4064C25.6215 21.4132 25.6045 21.4201 25.5908 21.4269V21.4303Z" fill="var(--fill-0, black)"/>
</g>
</svg>
