<svg preserveAspectRatio="none" width="100%" height="100%" overflow="visible" style="display: block;" viewBox="0 0 24 24" fill="none" xmlns="http://www.w3.org/2000/svg">
<g id="Frame" clip-path="url(#clip0_0_40)">
<path id="Vector" d="M21.5934 13.2244C21.3482 13.0354 21.067 12.8982 20.7671 12.8214C20.4671 12.7445 20.1547 12.7295 19.8488 12.7772C21.6094 10.9997 22.5 9.2325 22.5 7.5C22.5 5.01844 20.5041 3 18.0506 3C17.3996 2.99591 16.7556 3.13437 16.1638 3.40564C15.5721 3.67692 15.0468 4.07445 14.625 4.57031C14.2032 4.07445 13.6779 3.67692 13.0862 3.40564C12.4944 3.13437 11.8504 2.99591 11.1994 3C8.74594 3 6.75 5.01844 6.75 7.5C6.75 8.53125 7.05375 9.53344 7.69312 10.5937C7.16947 10.7264 6.69158 10.9986 6.31031 11.3812L4.18969 13.5H1.5C1.10218 13.5 0.720644 13.658 0.43934 13.9393C0.158035 14.2206 0 14.6022 0 15L0 18.75C0 19.1478 0.158035 19.5294 0.43934 19.8107C0.720644 20.092 1.10218 20.25 1.5 20.25H11.25C11.3113 20.25 11.3724 20.2425 11.4319 20.2275L17.4319 18.7275C17.4701 18.7184 17.5075 18.7058 17.5434 18.69L21.1875 17.1394L21.2288 17.1206C21.579 16.9456 21.8789 16.6843 22.1002 16.3614C22.3215 16.0385 22.457 15.6645 22.4939 15.2747C22.5307 14.8849 22.4678 14.4922 22.3109 14.1335C22.154 13.7748 21.9084 13.4619 21.5972 13.2244H21.5934ZM11.1994 4.5C11.7803 4.4915 12.3505 4.65645 12.8371 4.97375C13.3238 5.29105 13.7047 5.74629 13.9313 6.28125C13.9878 6.41881 14.0839 6.53646 14.2074 6.61926C14.3309 6.70207 14.4763 6.74627 14.625 6.74627C14.7737 6.74627 14.9191 6.70207 15.0426 6.61926C15.1661 6.53646 15.2622 6.41881 15.3187 6.28125C15.5453 5.74629 15.9262 5.29105 16.4129 4.97375C16.8995 4.65645 17.4697 4.4915 18.0506 4.5C19.6491 4.5 21 5.87344 21 7.5C21 9.32906 19.5197 11.3981 16.7194 13.4906L15.6797 13.7297C15.7709 13.3442 15.7738 12.943 15.6879 12.5563C15.6021 12.1695 15.4298 11.8072 15.1841 11.4965C14.9383 11.1858 14.6254 10.9347 14.2688 10.7622C13.9122 10.5896 13.5212 10.5 13.125 10.5H9.43875C8.62969 9.40875 8.25 8.44875 8.25 7.5C8.25 5.87344 9.60094 4.5 11.1994 4.5ZM1.5 15H3.75V18.75H1.5V15ZM20.5716 15.7697L17.0091 17.2866L11.1562 18.75H5.25V14.5603L7.37156 12.4397C7.51035 12.2998 7.67555 12.1889 7.85758 12.1134C8.0396 12.0379 8.23482 11.9994 8.43188 12H13.125C13.4234 12 13.7095 12.1185 13.9205 12.3295C14.1315 12.5405 14.25 12.8266 14.25 13.125C14.25 13.4234 14.1315 13.7095 13.9205 13.9205C13.7095 14.1315 13.4234 14.25 13.125 14.25H10.5C10.3011 14.25 10.1103 14.329 9.96967 14.4697C9.82902 14.6103 9.75 14.8011 9.75 15C9.75 15.1989 9.82902 15.3897 9.96967 15.5303C10.1103 15.671 10.3011 15.75 10.5 15.75H13.5C13.5565 15.7498 13.6127 15.7436 13.6678 15.7312L19.9491 14.2866L19.9781 14.2791C20.1699 14.2258 20.3745 14.2454 20.5527 14.334C20.7309 14.4226 20.87 14.5739 20.9434 14.7589C21.0167 14.9439 21.0189 15.1495 20.9498 15.3361C20.8806 15.5227 20.7449 15.6771 20.5687 15.7697H20.5716Z" fill="var(--fill-0, black)"/>
</g>
<defs>
<clipPath id="clip0_0_40">
<rect width="24" height="24" fill="white"/>
</clipPath>
</defs>
</svg>
