<svg preserveAspectRatio="none" width="100%" height="100%" overflow="visible" style="display: block;" viewBox="0 0 23.2941 24" fill="none" xmlns="http://www.w3.org/2000/svg">
<g id="Group">
<path id="Vector" d="M10.3923 0.0949412C10.6074 0.0693879 10.9388 0.0361687 11.126 0.0233921C11.3132 0.0131708 11.6218 0.000394187 11.809 0.000394187C11.9962 -0.00216114 12.3428 0.00806016 12.5806 0.0208368C12.8184 0.0361687 13.1978 0.0693879 13.428 0.100052C13.6583 0.12816 13.9947 0.181822 14.1743 0.215041C14.3539 0.250816 14.6626 0.31981 14.8574 0.368361C15.0522 0.419467 15.3709 0.511459 15.5657 0.575342C15.7605 0.639225 16.0919 0.759326 16.2993 0.843651C16.5093 0.930532 16.871 1.09663 17.1088 1.21673C17.3466 1.33427 17.6806 1.51826 17.8551 1.62558C18.0297 1.73035 18.3257 1.92455 18.5129 2.05488C18.7001 2.1852 18.9632 2.38196 19.0947 2.48673C19.2263 2.59405 19.4463 2.77803 19.583 2.89813C19.717 3.01568 19.8283 3.12045 19.8283 3.13067C19.8283 3.14344 19.0618 3.92537 16.4258 6.58802L16.2487 6.43215C16.1501 6.34526 15.9705 6.19706 15.844 6.10251C15.7175 6.00541 15.5151 5.86231 15.3886 5.78309C15.2621 5.70388 15.0016 5.55823 14.8068 5.46368C14.612 5.36913 14.3565 5.25414 14.2376 5.2107C14.1187 5.16982 13.9214 5.10338 13.7949 5.0676C13.6684 5.03183 13.4306 4.97306 13.2636 4.93984C13.0966 4.90662 12.8513 4.86318 12.7197 4.84529C12.5831 4.8274 12.2214 4.81463 11.8849 4.81463C11.4523 4.81463 11.2069 4.8274 10.9868 4.86062C10.8199 4.88362 10.5795 4.92706 10.4556 4.95517C10.3316 4.98328 10.109 5.04205 9.96228 5.08293C9.81555 5.12638 9.56511 5.21326 9.40573 5.27714C9.24636 5.34102 8.96555 5.46879 8.78594 5.56078C8.60633 5.65533 8.30276 5.8342 8.11555 5.96197C7.92582 6.08718 7.65261 6.2916 7.50841 6.4117C7.36169 6.53436 7.10618 6.77456 6.93922 6.94832C6.77225 7.12208 6.5724 7.3444 6.49398 7.44405C6.41556 7.54371 6.28654 7.71492 6.20559 7.82735C6.12716 7.93979 5.98297 8.16466 5.88937 8.32564C5.79323 8.48663 5.65916 8.7396 5.58832 8.88781C5.51749 9.03602 5.4163 9.27622 5.36065 9.42443C5.30246 9.57775 5.24428 9.69274 5.22657 9.69018C5.20886 9.69018 4.3285 9.01302 3.27107 8.1851C2.21363 7.35973 1.33327 6.66979 1.31556 6.65446C1.28773 6.63146 1.29785 6.59569 1.36363 6.46025C1.40663 6.36826 1.51288 6.17406 1.59637 6.02585C1.67985 5.87764 1.85187 5.59655 1.98089 5.3998C2.10991 5.20303 2.29205 4.93728 2.38565 4.81207C2.48178 4.68686 2.66645 4.44921 2.798 4.28823C2.93208 4.12724 3.20529 3.82316 3.40767 3.61362C3.61005 3.40664 3.89592 3.12811 4.04264 3.00035C4.18937 2.87002 4.42211 2.67326 4.56124 2.56083C4.70038 2.4484 4.96094 2.25419 5.14309 2.12898C5.3227 2.00121 5.61868 1.80956 5.80082 1.69968C5.98044 1.58981 6.3169 1.40327 6.5471 1.28572C6.77731 1.17073 7.11883 1.00719 7.30603 0.927977C7.49323 0.848762 7.82969 0.720996 8.05231 0.644336C8.27493 0.567676 8.64933 0.452687 8.88713 0.391359C9.12493 0.330031 9.4715 0.248261 9.65871 0.212486C9.84591 0.176712 10.1773 0.12305 10.3923 0.0949412Z" fill="var(--fill-0, #EA4335)"/>
<path id="Vector_2" d="M0.847572 7.5846C0.923465 7.3955 1.04742 7.1042 1.12585 6.94065V6.9381C1.20174 6.77456 1.27257 6.63913 1.28269 6.63913C1.29028 6.63913 2.15799 7.31373 3.20784 8.13655C4.25769 8.96192 5.14816 9.65441 5.24935 9.71829L5.18105 9.94827C5.1431 10.0735 5.08239 10.3111 5.04444 10.4721C5.00903 10.6331 4.96096 10.8861 4.93819 11.0343C4.91795 11.1825 4.89266 11.5428 4.88507 11.8392C4.87495 12.2506 4.88254 12.4627 4.91289 12.7464C4.93819 12.9508 4.98626 13.2549 5.02167 13.4235C5.05709 13.5922 5.11275 13.8273 5.14816 13.9474C5.18358 14.0675 5.21899 14.1927 5.22405 14.2284C5.23417 14.2847 5.1937 14.323 4.89772 14.5479C4.71304 14.6884 3.82763 15.3809 2.92956 16.0887C2.0315 16.794 1.29281 17.3715 1.28522 17.3715C1.27763 17.3715 1.2068 17.2386 1.12838 17.0725C1.04995 16.9064 0.933584 16.6432 0.87034 16.4899C0.809626 16.3366 0.698316 16.0351 0.627483 15.8255C0.55665 15.6134 0.457989 15.2915 0.409924 15.11C0.361858 14.9286 0.280906 14.5836 0.23537 14.3434C0.187305 14.1032 0.126591 13.7302 0.0987635 13.5129C0.0709361 13.2957 0.0355195 12.892 0.0178112 12.6186C0.00010289 12.3298 -0.00495663 11.9389 0.00516241 11.6859C0.0152814 11.4457 0.0329898 11.1186 0.0481683 10.9576C0.0608171 10.7966 0.0962337 10.5028 0.124061 10.306C0.151888 10.1093 0.197424 9.83328 0.225251 9.69274C0.253079 9.5522 0.316323 9.27622 0.364388 9.07946C0.412454 8.8827 0.511114 8.54284 0.581947 8.32564C0.652781 8.10844 0.771679 7.77369 0.847572 7.5846Z" fill="var(--fill-0, #FBBC05)"/>
<path id="Vector_3" d="M11.8849 14.484V12.1459V9.80774L23.0765 9.82051L23.1094 10.0122C23.1271 10.1169 23.1651 10.3878 23.1929 10.6127C23.2207 10.8375 23.2536 11.2055 23.2688 11.4304C23.2815 11.6552 23.2941 12.0385 23.2941 12.2787C23.2941 12.5215 23.2815 12.9201 23.2663 13.1603C23.2511 13.4031 23.2132 13.8196 23.1803 14.0879C23.1474 14.3562 23.0892 14.7293 23.0538 14.9184C23.0184 15.1075 22.9374 15.4576 22.8767 15.6978C22.816 15.938 22.7249 16.265 22.6743 16.426C22.6237 16.587 22.5073 16.909 22.4163 17.1415C22.3252 17.3741 22.1633 17.7471 22.052 17.972C21.9432 18.1969 21.7585 18.5418 21.6422 18.7386C21.5258 18.9354 21.3411 19.2267 21.2298 19.3876C21.121 19.5486 20.9111 19.8297 20.7643 20.0137C20.6176 20.1977 20.3318 20.5197 19.76 21.115L18.4091 20.0546C17.6654 19.472 16.8002 18.7897 16.484 18.5418C16.1652 18.2914 15.9072 18.0819 15.9072 18.0742C15.9072 18.0665 16.0185 17.9771 16.1551 17.8723C16.2892 17.7676 16.5068 17.581 16.6383 17.4584C16.7699 17.3332 16.9672 17.1211 17.0785 16.9882C17.1873 16.8553 17.3568 16.6253 17.4554 16.4771C17.5516 16.3289 17.7033 16.0581 17.7919 15.8766C17.8804 15.6952 17.9943 15.4243 18.0449 15.2761C18.0955 15.1279 18.1562 14.9209 18.1815 14.8162C18.2093 14.7114 18.2371 14.5939 18.2599 14.484H11.8849Z" fill="var(--fill-0, #4285F4)"/>
<path id="Vector_4" d="M2.82837 16.1654C3.64295 15.5266 4.51066 14.8468 4.76111 14.6526C5.00902 14.461 5.22405 14.3051 5.23923 14.3051C5.25188 14.3051 5.28224 14.3664 5.30247 14.438C5.32271 14.5121 5.40114 14.7165 5.47703 14.8928C5.55039 15.0692 5.68194 15.34 5.76542 15.4933C5.85143 15.6467 5.99563 15.8894 6.08923 16.03C6.1803 16.1705 6.34221 16.3954 6.44846 16.5282C6.55218 16.6611 6.73432 16.8732 6.85322 16.9984C6.96959 17.1236 7.1745 17.3229 7.30604 17.443C7.43759 17.5606 7.65515 17.742 7.7867 17.8417C7.91825 17.9413 8.14339 18.0947 8.28506 18.1815C8.42926 18.271 8.68982 18.4166 8.86691 18.5061C9.04652 18.5955 9.33238 18.7233 9.50693 18.7897C9.68149 18.8561 9.99265 18.9532 10.2026 19.0069C10.4101 19.0606 10.706 19.1245 10.8604 19.1474C11.0147 19.1704 11.3081 19.1986 11.5181 19.2113C11.7407 19.2241 12.0696 19.2241 12.315 19.2113C12.5452 19.1986 12.8968 19.1628 13.0992 19.1347C13.3016 19.104 13.6355 19.035 13.8455 18.9814C14.0529 18.9277 14.3666 18.8306 14.5412 18.7642C14.7157 18.6977 14.994 18.5751 15.1609 18.4907C15.3279 18.4064 15.5581 18.2812 15.672 18.2122C15.7909 18.1432 15.8946 18.0947 15.9123 18.1049C15.93 18.1151 16.5017 18.5597 17.1848 19.0938C17.8678 19.6279 18.7178 20.2948 19.077 20.5759C19.4337 20.8595 19.7272 21.0972 19.7272 21.1074C19.7272 21.1202 19.6158 21.2249 19.4818 21.3425C19.3452 21.4575 19.115 21.6466 18.9682 21.7564C18.8215 21.8689 18.5837 22.0401 18.437 22.1372C18.2903 22.2343 18.0449 22.3876 17.8931 22.477C17.7413 22.5665 17.4554 22.7172 17.2606 22.8143C17.0659 22.9089 16.7522 23.052 16.565 23.1286C16.3778 23.2053 16.0641 23.3203 15.8693 23.3842C15.6745 23.4481 15.338 23.5477 15.123 23.6039C14.908 23.6602 14.5816 23.7343 14.402 23.77C14.2224 23.8058 13.8961 23.8569 13.681 23.885C13.466 23.9131 13.1245 23.9515 12.9221 23.9693C12.7197 23.9847 12.2644 24 11.9102 24C11.556 24 11.1159 23.9872 10.9362 23.9693C10.7566 23.9515 10.4758 23.9208 10.3165 23.8978C10.1571 23.8774 9.87122 23.8314 9.68402 23.7956C9.49682 23.7598 9.16036 23.6857 8.93774 23.6269C8.71512 23.5707 8.37866 23.4711 8.19146 23.4097C8.00426 23.3458 7.71334 23.2385 7.54637 23.1721C7.37941 23.1056 7.08343 22.9779 6.88863 22.8884C6.69384 22.799 6.36497 22.6304 6.155 22.5128C5.94756 22.3953 5.56557 22.1576 5.30754 21.9839C5.0495 21.8101 4.70798 21.5597 4.54608 21.4294C4.38417 21.299 4.12108 21.0742 3.96423 20.9336C3.80486 20.7905 3.53923 20.5324 3.37227 20.3587C3.20531 20.1824 2.93715 19.8834 2.77778 19.6892C2.6184 19.495 2.3629 19.1602 2.20858 18.943C2.05679 18.7258 1.84177 18.4013 1.73552 18.2224C1.62927 18.0435 1.48254 17.7804 1.40918 17.6398C1.30293 17.4303 1.28522 17.3792 1.31305 17.3562C1.33328 17.3408 2.01379 16.8042 2.82837 16.1654Z" fill="var(--fill-0, #34A853)"/>
</g>
</svg>
