<svg preserveAspectRatio="none" width="100%" height="100%" overflow="visible" style="display: block;" viewBox="0 0 27.625 27.625" fill="none" xmlns="http://www.w3.org/2000/svg">
<g id="Group">
<path id="Vector" d="M11.7493 0.124834C12.118 0.0741447 12.4914 0.0188478 12.579 0.00963166C12.6666 0.00041551 13.3119 -0.00419257 14.008 0.00502359C15.0175 0.0142397 15.4047 0.0372801 15.898 0.115617C16.2391 0.166306 16.8199 0.286116 17.1887 0.378278C17.5575 0.470439 18.0645 0.617898 18.3181 0.705451C18.5716 0.793004 18.9772 0.949679 19.2169 1.05106C19.4566 1.15243 19.8439 1.33215 20.0697 1.44735C20.2956 1.55795 20.692 1.77913 20.9456 1.9312C21.1991 2.08327 21.5817 2.3321 21.7984 2.48417C22.015 2.63623 22.3469 2.88507 22.5359 3.04175C22.7249 3.19381 23.1582 3.59011 23.4993 3.92189C23.8358 4.24906 24.283 4.7283 24.4904 4.98174C24.6979 5.23519 24.9929 5.61766 25.1496 5.83424C25.3017 6.05082 25.5506 6.43329 25.7028 6.68673C25.8549 6.94018 26.0761 7.33647 26.1868 7.56227C26.302 7.78806 26.4818 8.17514 26.5832 8.41476C26.6846 8.65438 26.8414 9.05989 26.9289 9.31334C27.0165 9.56678 27.164 10.0737 27.2562 10.4423C27.3484 10.811 27.4683 11.4008 27.5236 11.7556C27.6158 12.3178 27.625 12.5851 27.625 13.8062C27.625 15.0273 27.6158 15.2946 27.5236 15.8568C27.4683 16.2116 27.3484 16.8015 27.2562 17.1701C27.164 17.5387 27.0165 18.0456 26.9289 18.2991C26.8414 18.5525 26.6846 18.958 26.5832 19.1977C26.4818 19.4373 26.3066 19.8105 26.2006 20.0271C26.09 20.2437 25.9056 20.5847 25.7857 20.7874C25.6659 20.9902 25.4446 21.3312 25.3017 21.5478C25.1542 21.7644 24.8868 22.1376 24.6979 22.3772C24.5135 22.6168 24.0986 23.0823 23.7805 23.4094C23.4625 23.7366 23.0291 24.1513 22.8125 24.3357C22.5958 24.5154 22.2225 24.8103 21.9827 24.9854C21.743 25.1651 21.3789 25.414 21.1761 25.543C20.9732 25.672 20.5491 25.9116 20.2311 26.0775C19.913 26.2434 19.3737 26.4922 19.0326 26.6305C18.6914 26.7687 18.2028 26.9484 17.9493 27.0268C17.6957 27.1005 17.2717 27.2157 17.0043 27.2802C16.7369 27.3401 16.3036 27.4277 16.0363 27.4692C15.6352 27.5337 15.5476 27.5383 15.52 27.483C15.5015 27.4507 15.4831 25.3126 15.4831 18.0456H17.35C18.8021 18.0456 19.2215 18.0318 19.24 17.9903C19.2538 17.9581 19.429 17.0273 19.6318 15.9259C19.8346 14.8246 20.0006 13.8938 20.0006 13.8615C20.0006 13.82 19.5166 13.8062 15.4831 13.8062V13.1288C15.4831 12.751 15.5061 12.1888 15.5292 11.8708C15.5522 11.5529 15.6029 11.1704 15.6444 11.0183C15.6813 10.8663 15.7735 10.6174 15.8473 10.4654C15.9302 10.2902 16.0824 10.0921 16.2529 9.93543C16.4004 9.79258 16.6401 9.62208 16.783 9.55296C16.9305 9.48383 17.1887 9.39167 17.3592 9.3502C17.6174 9.28108 17.8894 9.26725 20.2311 9.26725V5.44255L19.9914 5.38726C19.8577 5.355 19.6042 5.30892 19.4244 5.28127C19.2446 5.25362 18.8021 5.19832 18.4333 5.16607C18.0645 5.1292 17.5067 5.09695 17.1887 5.09695C16.8706 5.09695 16.3958 5.11538 16.1285 5.14303C15.8611 5.17068 15.4186 5.23519 15.1374 5.28588C14.8562 5.34117 14.4551 5.43794 14.2385 5.51167C14.0218 5.58079 13.6577 5.73286 13.4318 5.84806C13.2059 5.95866 12.851 6.17524 12.6481 6.3273C12.4453 6.47937 12.1687 6.7236 12.0304 6.87566C11.8922 7.02312 11.6985 7.27196 11.5971 7.42403C11.4911 7.57609 11.3113 7.90787 11.1915 8.16132C11.0716 8.41476 10.9149 8.81106 10.8504 9.03685C10.7858 9.26265 10.689 9.6912 10.6383 9.98151C10.5876 10.2718 10.5277 10.8432 10.5046 11.2487C10.4816 11.6542 10.4585 12.3961 10.4585 13.8062H7.64663V18.0456H10.4585V22.6307C10.4585 25.6582 10.4447 27.2157 10.4124 27.2157C10.3848 27.2157 10.1451 27.1512 9.8685 27.0729C9.59653 26.9945 9.1079 26.824 8.77601 26.695C8.44411 26.566 7.88634 26.3171 7.53139 26.1328C7.17645 25.9531 6.63711 25.6444 6.33287 25.4462C6.02864 25.2481 5.57228 24.9255 5.31874 24.732C5.06521 24.5384 4.51205 24.0407 4.09257 23.6214C3.67309 23.2021 3.18907 22.686 3.01851 22.4694C2.84795 22.2528 2.54832 21.8381 2.35011 21.5478C2.1565 21.2575 1.89836 20.852 1.78312 20.6492C1.66788 20.4464 1.49271 20.1147 1.39129 19.9119C1.28527 19.7092 1.08705 19.253 0.948765 18.8981C0.805864 18.5433 0.616867 17.9949 0.524674 17.677C0.43248 17.359 0.308019 16.8521 0.248093 16.548C0.188167 16.2439 0.105192 15.6955 0.0637053 15.3269C-0.000830254 14.8062 -0.0100496 14.4053 0.00838911 13.5067C0.0268278 12.668 0.0590956 12.1842 0.128241 11.7326C0.178947 11.3916 0.298799 10.811 0.390993 10.4423C0.483186 10.0737 0.630696 9.56678 0.71828 9.31334C0.805864 9.05989 0.962594 8.65438 1.06401 8.41476C1.16542 8.17514 1.3452 7.78806 1.46044 7.56227C1.57107 7.33647 1.79234 6.94018 1.94446 6.68673C2.09658 6.43329 2.35933 6.02778 2.52989 5.78816C2.70505 5.54854 3.00929 5.15224 3.21212 4.91262C3.41495 4.673 3.86669 4.19376 4.21703 3.85277C4.57198 3.50716 5.13897 3.0187 5.48008 2.76526C5.8212 2.51182 6.27756 2.19386 6.49421 2.05562C6.71087 1.91737 7.11191 1.68697 7.3931 1.54412C7.67429 1.39666 8.07533 1.20312 8.29199 1.10635C8.50865 1.01419 8.90969 0.857518 9.19088 0.75614C9.47207 0.654762 10.0068 0.49348 10.3894 0.39671C10.7674 0.29994 11.3805 0.175522 11.7493 0.124834Z" fill="var(--fill-0, #0866FF)"/>
<path id="Vector_2" d="M15.1374 5.28588C15.4185 5.23058 15.8196 5.17068 16.0362 5.14764C16.2529 5.12921 16.7277 5.10616 17.0965 5.10616C17.4652 5.10156 18.0645 5.12921 18.4333 5.16607C18.8021 5.19833 19.2446 5.25362 19.4244 5.28127C19.6041 5.30892 19.8577 5.355 20.2311 5.44255V9.26726H18.9496C17.8893 9.26726 17.6174 9.28108 17.3638 9.3502C17.1887 9.39167 16.9305 9.48384 16.7876 9.55296C16.6401 9.62208 16.4004 9.79258 16.2529 9.93543C16.0823 10.0921 15.9302 10.2902 15.8472 10.4654C15.7735 10.6174 15.6813 10.8663 15.6444 11.0183C15.6029 11.1704 15.5522 11.5529 15.5292 11.8708C15.5061 12.1888 15.4831 12.751 15.4831 13.8062H17.7418C19.5166 13.8062 20.0006 13.82 20.0006 13.8661C20.0006 13.8938 19.8346 14.8246 19.6318 15.9259C19.429 17.0273 19.2538 17.9581 19.24 17.9903C19.2215 18.0318 18.8021 18.0456 15.4831 18.0456L15.4969 22.7874C15.5061 27.4968 15.5061 27.5337 15.4139 27.5613C15.3632 27.5798 14.7916 27.6028 14.1463 27.6166C13.2197 27.635 12.8279 27.6258 12.3024 27.5613C11.9336 27.5198 11.3851 27.4369 11.0808 27.3724C10.7766 27.3125 10.5138 27.2618 10.4954 27.2618C10.4724 27.2618 10.4585 25.1882 10.4585 18.0456H7.64662V13.8062H10.4585V12.8984C10.4585 12.3961 10.4816 11.6542 10.5046 11.2487C10.5277 10.8432 10.5876 10.2718 10.6383 9.98151C10.689 9.6912 10.7858 9.26265 10.8503 9.03685C10.9149 8.81106 11.0716 8.41476 11.1915 8.16132C11.3113 7.90787 11.4911 7.57609 11.5971 7.42403C11.6985 7.27196 11.8921 7.02312 12.0304 6.87567C12.1687 6.7236 12.4453 6.47937 12.6481 6.3273C12.851 6.17524 13.2059 5.95866 13.4318 5.84807C13.6576 5.73286 14.0218 5.5808 14.2385 5.51168C14.4551 5.43795 14.8562 5.33657 15.1374 5.28588Z" fill="var(--fill-0, white)"/>
</g>
</svg>
