<svg preserveAspectRatio="none" width="100%" height="100%" overflow="visible" style="display: block;" viewBox="0 0 38.2609 50.6244" fill="none" xmlns="http://www.w3.org/2000/svg">
<path id="Vector" d="M36.7865 5.61577C35.5514 4.12024 33.4594 3.86399 31.9176 5.02764C31.737 5.16207 31.5648 5.31751 31.3925 5.48134C31.2455 4.66216 31.0354 3.88499 30.7204 3.19604C30.2583 2.17522 29.7332 1.44846 29.0694 0.90654C28.1242 0.133571 26.9227 -0.168897 25.8557 0.0915605C25.1163 0.2722 24.4316 0.713296 23.7678 1.44006C23.2049 2.05339 22.7722 2.72134 22.4319 3.40188C21.827 2.29704 21.0834 1.43165 20.2097 0.82252C19.025 -0.000860599 17.7269 -0.147891 16.5591 0.410831C15.2232 1.04517 14.278 2.5491 14.1519 4.23787C13.9587 6.81303 14.257 9.66966 14.9417 12.2364C11.8456 11.056 8.59832 11.0896 5.69969 12.4003C3.53621 13.3749 1.83063 15.0636 0.902229 17.1599C-0.0261741 19.2562 -0.584896 22.5413 0.99465 24.709C1.50296 25.4063 2.25072 25.9818 3.09091 26.3389C2.64981 26.5658 2.25073 26.885 1.90205 27.3009C0.3015 29.2081 0.150267 32.9049 1.58698 35.0558C3.56982 38.0301 5.96434 39.1811 7.88416 40.1053C9.14023 40.7103 10.1359 41.1892 10.5769 41.9957C11.1441 43.0334 11.0937 44.2852 11.0222 46.0118C10.997 46.5957 10.9718 47.1965 10.9676 47.8644C10.9634 48.5618 11.5222 49.1289 12.2195 49.1331H12.2279C12.9211 49.1331 13.484 48.5744 13.4882 47.8812C13.4882 47.2595 13.5176 46.6756 13.5386 46.1168C13.6184 44.1424 13.6898 42.4368 12.7866 40.7859C11.9591 39.2693 10.5097 38.572 8.9764 37.8368C7.24562 37.005 5.28379 36.0598 3.68324 33.6569C2.87666 32.447 2.95648 29.9685 3.83448 28.9183C4.12854 28.5654 4.61164 28.2209 5.72069 28.7082C6.34242 28.9813 6.90955 29.3762 7.51449 29.7921C8.83358 30.7079 10.3291 31.7455 12.5514 31.4808C15.2064 31.1616 17.6261 28.6032 17.9496 25.7718C18.2268 23.3311 17.08 21.2138 14.9627 20.2476C12.6312 19.1847 9.76198 19.7939 7.98499 21.7305C7.81695 21.9111 7.6447 22.1086 7.46407 22.3144C6.93475 22.911 6.33823 23.5873 5.80471 23.978C5.00233 24.5619 3.63283 24.041 3.0363 23.226C2.19192 22.0708 2.48598 19.8191 3.21274 18.1891C3.89328 16.6642 5.14516 15.4249 6.74151 14.7066C9.77037 13.3413 13.3201 13.7614 16.4834 15.8576C16.4834 15.8576 16.4877 15.8576 16.4919 15.8576C16.5549 15.8996 16.6221 15.9332 16.6893 15.9626C16.7103 15.971 16.7271 15.9752 16.7481 15.9836C16.7985 16.0004 16.8531 16.0172 16.9035 16.0299C16.9245 16.0341 16.9456 16.0383 16.9666 16.0425C17.0338 16.0551 17.1052 16.0635 17.1766 16.0635C17.1766 16.0635 17.1766 16.0635 17.1808 16.0635C17.2648 16.0635 17.3488 16.0551 17.4329 16.0382C17.4539 16.0382 17.4707 16.0256 17.4875 16.0214C17.5505 16.0046 17.6135 15.9836 17.6765 15.9584C17.6807 15.9584 17.6891 15.9584 17.6933 15.9542C17.7185 15.9416 17.7437 15.9248 17.7689 15.9122C17.8109 15.8912 17.8529 15.866 17.8908 15.8408C17.9244 15.8156 17.958 15.7862 17.9874 15.761C18.0168 15.7358 18.0462 15.7106 18.0756 15.6812C18.1092 15.6476 18.1386 15.6056 18.168 15.5677C18.1848 15.5467 18.2058 15.5257 18.2226 15.5047C18.2226 15.5005 18.2268 15.4921 18.231 15.4879C18.2562 15.4459 18.2772 15.4039 18.2982 15.3619C18.315 15.3283 18.3319 15.2989 18.3445 15.2653C18.3613 15.2275 18.3697 15.1855 18.3781 15.1477C18.3907 15.1098 18.4033 15.0678 18.4117 15.03C18.4201 14.9922 18.4201 14.9502 18.4243 14.9082C18.4243 14.8704 18.4327 14.8284 18.4327 14.7906C18.4327 14.7486 18.4243 14.7066 18.4201 14.6646C18.4159 14.6267 18.4117 14.5847 18.4033 14.5469C18.3949 14.5091 18.3823 14.4755 18.3697 14.4419C18.3571 14.3957 18.3445 14.3537 18.3234 14.3117C18.3234 14.3033 18.3235 14.2991 18.3151 14.2907C17.0674 11.5349 16.4162 7.66582 16.6599 4.43951C16.7187 3.66234 17.122 2.94398 17.6387 2.69613C17.7605 2.63732 18.1344 2.46088 18.7687 2.90198C20.2139 3.9018 20.949 6.06527 21.3145 7.69943C21.1423 9.71587 21.1087 11.9214 21.2179 14.2571C21.2515 14.9334 21.806 15.4585 22.4782 15.4585C22.4992 15.4585 22.5202 15.4585 22.537 15.4585C23.2343 15.4249 23.7678 14.8368 23.7384 14.1394C23.6292 11.8289 23.6628 9.66126 23.8435 7.69943C23.9653 6.38034 24.3686 4.52353 25.6289 3.14983C25.9397 2.80956 26.2212 2.60791 26.4606 2.5491C26.7547 2.47768 27.1538 2.60371 27.4773 2.86837C27.8301 3.15823 28.1326 3.59513 28.4309 4.25047C29.0022 5.50655 29.1408 7.32134 29.187 9.14034C28.5317 10.8963 28.0402 13.106 27.7125 15.8114C27.6285 16.5046 28.12 17.1305 28.8131 17.2145C29.4979 17.2985 30.1322 16.807 30.2163 16.1139C30.5355 13.4715 30.9892 11.5643 31.4891 10.1822C31.6026 10.0183 31.6782 9.82929 31.7034 9.62765C32.2831 8.21614 32.909 7.45997 33.4426 7.05669C33.9005 6.71221 34.4802 6.78363 34.8499 7.23312C36.463 9.19495 35.5178 13.0682 34.8289 15.8954C34.7154 16.3659 34.6062 16.807 34.5138 17.2145C33.9929 19.5544 33.3375 21.9195 32.7032 24.209C32.4848 24.9988 32.2663 25.7928 32.0521 26.5826C30.4725 32.4092 28.0024 41.8571 26.1792 49.0533C26.0069 49.7296 26.4144 50.4144 27.0908 50.5866C27.1958 50.6118 27.3008 50.6244 27.4016 50.6244C27.9646 50.6244 28.4771 50.2463 28.6241 49.675C30.4473 42.4956 32.9132 33.0604 34.4844 27.2463C34.6986 26.4607 34.9171 25.671 35.1355 24.8854C35.7783 22.5665 36.442 20.172 36.9755 17.769C37.0638 17.3741 37.1688 16.9499 37.278 16.4962C38.093 13.148 39.2146 8.56902 36.7949 5.63258L36.7865 5.61577ZM7.26662 26.007C8.02699 25.4567 8.72015 24.6669 9.33769 23.9738C9.50572 23.7848 9.66956 23.5999 9.82499 23.4277C11.0517 22.096 12.7992 22.0288 13.8999 22.5329C14.5636 22.8353 15.6391 23.6209 15.429 25.4819C15.2442 27.1329 13.7192 28.7964 12.2363 28.9729C10.9676 29.1241 10.0728 28.5024 8.93859 27.7168C8.26224 27.2463 7.56489 26.7632 6.72051 26.3935C6.6995 26.3851 6.67849 26.3767 6.66169 26.3683C6.87173 26.2717 7.07338 26.1499 7.26662 26.0112V26.007Z" fill="var(--fill-0, black)"/>
</svg>
